STARTFONT 2.1
FONT -Monotype-Gill Sans-Bold-R-Normal--12-120-72-72-P-63-ISO8859-1
SIZE 12 72 72
FONTBOUNDINGBOX 19 16 -5 -3

STARTPROPERTIES 22
FOUNDRY "Monotype"
FAMILY_NAME "Gill Sans"
WEIGHT_NAME "Bold"
SLANT "R"
SETWIDTH_NAME "Normal"
ADD_STYLE_NAME ""
PIXEL_SIZE 12
POINT_SIZE 120
RESOLUTION_X 72
RESOLUTION_Y 72
SPACING "P"
AVERAGE_WIDTH 63
CHARSET_REGISTRY "ISO8859"
CHARSET_ENCODING "1"
FULL_NAME "GillSans-Bold"
COPYRIGHT "Copyright (c) 1991 The Monotype Corporation plc."
WEIGHT 10
X_HEIGHT 6
QUAD_WIDTH 8
DEFAULT_CHAR 32
FONT_DESCENT 3
FONT_ASCENT 11
ENDPROPERTIES

CHARS 190

STARTCHAR space
ENCODING 32
SWIDTH 278 0
DWIDTH 3 0
BBX 1 1 0 0
BITMAP
00
ENDCHAR

STARTCHAR exclam
ENCODING 33
SWIDTH 271 0
DWIDTH 3 0
BBX 2 9 1 0
BITMAP
C0
C0
C0
C0
C0
80
00
00
C0
ENDCHAR

STARTCHAR quotedbl
ENCODING 34
SWIDTH 479 0
DWIDTH 6 0
BBX 5 2 0 7
BITMAP
D8
D8
ENDCHAR

STARTCHAR numbersign
ENCODING 35
SWIDTH 584 0
DWIDTH 8 0
BBX 7 9 0 0
BITMAP
36
36
26
FE
6C
6C
FE
CC
D8
ENDCHAR

STARTCHAR dollar
ENCODING 36
SWIDTH 542 0
DWIDTH 7 0
BBX 6 10 0 -1
BITMAP
7C
E4
E0
E0
78
3C
2C
AC
F8
20
ENDCHAR

STARTCHAR percent
ENCODING 37
SWIDTH 719 0
DWIDTH 9 0
BBX 9 9 0 0
BITMAP
7300
DA00
DE00
7C00
0800
1F00
3D80
2D80
6700
ENDCHAR

STARTCHAR ampersand
ENCODING 38
SWIDTH 750 0
DWIDTH 9 0
BBX 10 9 0 0
BITMAP
3C00
6600
6600
7C00
7800
FDC0
CF80
C700
79C0
ENDCHAR

STARTCHAR quoteright
ENCODING 39
SWIDTH 271 0
DWIDTH 3 0
BBX 2 4 1 5
BITMAP
C0
C0
C0
80
ENDCHAR

STARTCHAR parenleft
ENCODING 40
SWIDTH 385 0
DWIDTH 5 0
BBX 4 12 1 -3
BITMAP
30
60
60
C0
C0
C0
C0
C0
C0
60
60
30
ENDCHAR

STARTCHAR parenright
ENCODING 41
SWIDTH 385 0
DWIDTH 5 0
BBX 4 12 0 -3
BITMAP
C0
60
60
30
30
30
30
30
30
60
60
C0
ENDCHAR

STARTCHAR asterisk
ENCODING 42
SWIDTH 469 0
DWIDTH 6 0
BBX 5 5 0 3
BITMAP
28
F8
70
A8
20
ENDCHAR

STARTCHAR plus
ENCODING 43
SWIDTH 584 0
DWIDTH 7 0
BBX 6 6 1 1
BITMAP
30
30
FC
FC
30
30
ENDCHAR

STARTCHAR comma
ENCODING 44
SWIDTH 271 0
DWIDTH 3 0
BBX 2 4 1 -3
BITMAP
C0
C0
C0
80
ENDCHAR

STARTCHAR minus
ENCODING 45
SWIDTH 584 0
DWIDTH 7 0
BBX 6 2 1 3
BITMAP
FC
FC
ENDCHAR

STARTCHAR period
ENCODING 46
SWIDTH 271 0
DWIDTH 3 0
BBX 2 2 1 0
BITMAP
C0
C0
ENDCHAR

STARTCHAR slash
ENCODING 47
SWIDTH 281 0
DWIDTH 4 0
BBX 4 12 0 -3
BITMAP
30
30
20
20
60
60
60
40
40
C0
C0
80
ENDCHAR

STARTCHAR zero
ENCODING 48
SWIDTH 552 0
DWIDTH 7 0
BBX 6 9 0 0
BITMAP
78
48
CC
CC
CC
CC
CC
48
78
ENDCHAR

STARTCHAR one
ENCODING 49
SWIDTH 552 0
DWIDTH 7 0
BBX 2 9 2 0
BITMAP
C0
C0
C0
C0
C0
C0
C0
C0
C0
ENDCHAR

STARTCHAR two
ENCODING 50
SWIDTH 552 0
DWIDTH 7 0
BBX 5 9 1 0
BITMAP
F0
98
18
18
18
30
70
60
F8
ENDCHAR

STARTCHAR three
ENCODING 51
SWIDTH 552 0
DWIDTH 7 0
BBX 5 9 1 0
BITMAP
F0
98
18
18
30
18
18
98
F0
ENDCHAR

STARTCHAR four
ENCODING 52
SWIDTH 552 0
DWIDTH 7 0
BBX 6 9 0 0
BITMAP
18
18
38
78
78
D8
FC
18
18
ENDCHAR

STARTCHAR five
ENCODING 53
SWIDTH 552 0
DWIDTH 7 0
BBX 5 9 1 0
BITMAP
F8
C0
C0
C0
F0
18
18
98
F0
ENDCHAR

STARTCHAR six
ENCODING 54
SWIDTH 552 0
DWIDTH 7 0
BBX 6 9 0 0
BITMAP
38
30
60
78
CC
CC
CC
CC
78
ENDCHAR

STARTCHAR seven
ENCODING 55
SWIDTH 552 0
DWIDTH 7 0
BBX 5 9 1 0
BITMAP
F8
38
30
30
30
60
60
60
60
ENDCHAR

STARTCHAR eight
ENCODING 56
SWIDTH 552 0
DWIDTH 7 0
BBX 6 9 0 0
BITMAP
78
CC
CC
CC
78
CC
CC
CC
78
ENDCHAR

STARTCHAR nine
ENCODING 57
SWIDTH 552 0
DWIDTH 7 0
BBX 6 9 0 0
BITMAP
78
CC
CC
CC
CC
78
18
30
70
ENDCHAR

STARTCHAR colon
ENCODING 58
SWIDTH 271 0
DWIDTH 3 0
BBX 2 6 1 0
BITMAP
C0
C0
00
00
C0
C0
ENDCHAR

STARTCHAR semicolon
ENCODING 59
SWIDTH 271 0
DWIDTH 3 0
BBX 2 8 1 -2
BITMAP
C0
C0
00
00
C0
C0
C0
80
ENDCHAR

STARTCHAR less
ENCODING 60
SWIDTH 584 0
DWIDTH 7 0
BBX 6 8 1 1
BITMAP
04
1C
78
E0
E0
78
1C
04
ENDCHAR

STARTCHAR equal
ENCODING 61
SWIDTH 584 0
DWIDTH 7 0
BBX 6 5 1 2
BITMAP
FC
FC
00
FC
FC
ENDCHAR

STARTCHAR greater
ENCODING 62
SWIDTH 584 0
DWIDTH 7 0
BBX 6 8 1 1
BITMAP
80
E0
78
1C
1C
78
E0
80
ENDCHAR

STARTCHAR question
ENCODING 63
SWIDTH 375 0
DWIDTH 5 0
BBX 3 9 1 0
BITMAP
E0
60
60
C0
C0
80
00
00
C0
ENDCHAR

STARTCHAR at
ENCODING 64
SWIDTH 979 0
DWIDTH 12 0
BBX 12 12 0 -3
BITMAP
0F80
30E0
67E0
6DB0
D9B0
D930
D930
DB60
CFD0
6020
3040
0F80
ENDCHAR

STARTCHAR A
ENCODING 65
SWIDTH 781 0
DWIDTH 9 0
BBX 9 9 0 0
BITMAP
1C00
1C00
3600
3600
3600
6300
7F00
6380
C180
ENDCHAR

STARTCHAR B
ENCODING 66
SWIDTH 698 0
DWIDTH 8 0
BBX 7 9 1 0
BITMAP
F8
CC
CC
CC
FC
C6
C6
C6
FC
ENDCHAR

STARTCHAR C
ENCODING 67
SWIDTH 771 0
DWIDTH 9 0
BBX 8 9 1 0
BITMAP
1F
61
C0
C0
C0
C0
C0
61
3F
ENDCHAR

STARTCHAR D
ENCODING 68
SWIDTH 802 0
DWIDTH 10 0
BBX 8 9 1 0
BITMAP
FC
C6
C3
C3
C3
C3
C3
C6
FC
ENDCHAR

STARTCHAR E
ENCODING 69
SWIDTH 635 0
DWIDTH 8 0
BBX 6 9 1 0
BITMAP
FC
C0
C0
C0
FC
C0
C0
C0
FC
ENDCHAR

STARTCHAR F
ENCODING 70
SWIDTH 604 0
DWIDTH 7 0
BBX 6 9 1 0
BITMAP
FC
C0
C0
C0
FC
C0
C0
C0
C0
ENDCHAR

STARTCHAR G
ENCODING 71
SWIDTH 813 0
DWIDTH 10 0
BBX 8 9 1 0
BITMAP
3F
61
C0
C0
C0
C7
C3
63
3E
ENDCHAR

STARTCHAR H
ENCODING 72
SWIDTH 833 0
DWIDTH 10 0
BBX 8 9 1 0
BITMAP
C3
C3
C3
C3
FF
C3
C3
C3
C3
ENDCHAR

STARTCHAR I
ENCODING 73
SWIDTH 333 0
DWIDTH 4 0
BBX 2 9 1 0
BITMAP
C0
C0
C0
C0
C0
C0
C0
C0
C0
ENDCHAR

STARTCHAR J
ENCODING 74
SWIDTH 333 0
DWIDTH 4 0
BBX 3 12 0 -3
BITMAP
60
60
60
60
60
60
60
60
60
60
60
C0
ENDCHAR

STARTCHAR K
ENCODING 75
SWIDTH 719 0
DWIDTH 9 0
BBX 8 9 1 0
BITMAP
CE
CC
D8
F8
F0
F8
DC
CE
C7
ENDCHAR

STARTCHAR L
ENCODING 76
SWIDTH 615 0
DWIDTH 7 0
BBX 6 9 1 0
BITMAP
C0
C0
C0
C0
C0
C0
C0
C0
FC
ENDCHAR

STARTCHAR M
ENCODING 77
SWIDTH 885 0
DWIDTH 11 0
BBX 9 9 1 0
BITMAP
C180
E380
F780
FF80
DD80
D980
C980
C180
C180
ENDCHAR

STARTCHAR N
ENCODING 78
SWIDTH 844 0
DWIDTH 10 0
BBX 8 9 1 0
BITMAP
C3
E3
F3
FB
DF
CF
CF
C7
C3
ENDCHAR

STARTCHAR O
ENCODING 79
SWIDTH 875 0
DWIDTH 11 0
BBX 9 9 1 0
BITMAP
3E00
6300
C180
C180
C180
C180
C180
6300
3E00
ENDCHAR

STARTCHAR P
ENCODING 80
SWIDTH 656 0
DWIDTH 8 0
BBX 6 9 1 0
BITMAP
F8
CC
CC
CC
F8
C0
C0
C0
C0
ENDCHAR

STARTCHAR Q
ENCODING 81
SWIDTH 875 0
DWIDTH 11 0
BBX 9 11 1 -2
BITMAP
3E00
6300
C180
C180
C180
C180
C100
6300
3E00
0E00
0780
ENDCHAR

STARTCHAR R
ENCODING 82
SWIDTH 677 0
DWIDTH 8 0
BBX 7 9 1 0
BITMAP
F8
CC
CC
CC
F8
DC
CC
CC
C6
ENDCHAR

STARTCHAR S
ENCODING 83
SWIDTH 604 0
DWIDTH 7 0
BBX 6 9 1 0
BITMAP
7C
C4
C0
E0
78
1C
0C
8C
F8
ENDCHAR

STARTCHAR T
ENCODING 84
SWIDTH 719 0
DWIDTH 9 0
BBX 8 9 0 0
BITMAP
FF
18
18
18
18
18
18
18
18
ENDCHAR

STARTCHAR U
ENCODING 85
SWIDTH 823 0
DWIDTH 10 0
BBX 8 9 1 0
BITMAP
C3
C3
C3
C3
C3
C3
C3
66
3C
ENDCHAR

STARTCHAR V
ENCODING 86
SWIDTH 719 0
DWIDTH 9 0
BBX 9 9 0 0
BITMAP
C380
6300
6700
3600
3600
3C00
1C00
1C00
0800
ENDCHAR

STARTCHAR W
ENCODING 87
SWIDTH 1167 0
DWIDTH 14 0
BBX 14 9 0 0
BITMAP
C30C
6798
6798
77B8
3CF0
3CF0
1CE0
1860
1860
ENDCHAR

STARTCHAR X
ENCODING 88
SWIDTH 813 0
DWIDTH 10 0
BBX 10 9 0 0
BITMAP
E380
7700
3E00
1E00
1C00
1E00
3700
7300
E1C0
ENDCHAR

STARTCHAR Y
ENCODING 89
SWIDTH 708 0
DWIDTH 8 0
BBX 8 9 0 0
BITMAP
E7
66
3C
3C
18
18
18
18
18
ENDCHAR

STARTCHAR Z
ENCODING 90
SWIDTH 698 0
DWIDTH 8 0
BBX 8 9 0 0
BITMAP
FF
06
0C
1C
18
38
30
60
FF
ENDCHAR

STARTCHAR bracketleft
ENCODING 91
SWIDTH 438 0
DWIDTH 5 0
BBX 3 12 2 -3
BITMAP
E0
C0
C0
C0
C0
C0
C0
C0
C0
C0
C0
E0
ENDCHAR

STARTCHAR backslash
ENCODING 92
SWIDTH 281 0
DWIDTH 3 0
BBX 4 9 0 0
BITMAP
C0
C0
C0
40
40
60
60
60
30
ENDCHAR

STARTCHAR bracketright
ENCODING 93
SWIDTH 438 0
DWIDTH 5 0
BBX 3 12 1 -3
BITMAP
E0
60
60
60
60
60
60
60
60
60
60
E0
ENDCHAR

STARTCHAR asciicircum
ENCODING 94
SWIDTH 584 0
DWIDTH 7 0
BBX 6 5 0 4
BITMAP
30
78
78
FC
CC
ENDCHAR

STARTCHAR underscore
ENCODING 95
SWIDTH 500 0
DWIDTH 7 0
BBX 7 1 0 -3
BITMAP
FE
ENDCHAR

STARTCHAR quoteleft
ENCODING 96
SWIDTH 271 0
DWIDTH 3 0
BBX 2 4 1 5
BITMAP
40
C0
C0
C0
ENDCHAR

STARTCHAR a
ENCODING 97
SWIDTH 531 0
DWIDTH 6 0
BBX 6 6 0 0
BITMAP
F0
98
38
D8
D8
EC
ENDCHAR

STARTCHAR b
ENCODING 98
SWIDTH 583 0
DWIDTH 7 0
BBX 6 9 1 0
BITMAP
C0
C0
C0
F8
CC
CC
CC
CC
F8
ENDCHAR

STARTCHAR c
ENCODING 99
SWIDTH 500 0
DWIDTH 6 0
BBX 5 6 1 0
BITMAP
78
C8
C0
C0
C8
78
ENDCHAR

STARTCHAR d
ENCODING 100
SWIDTH 583 0
DWIDTH 7 0
BBX 6 9 0 0
BITMAP
0C
0C
0C
7C
CC
CC
CC
CC
7C
ENDCHAR

STARTCHAR e
ENCODING 101
SWIDTH 552 0
DWIDTH 7 0
BBX 6 6 0 0
BITMAP
78
CC
FC
C0
E4
7C
ENDCHAR

STARTCHAR f
ENCODING 102
SWIDTH 302 0
DWIDTH 4 0
BBX 5 9 0 0
BITMAP
38
60
60
F0
60
60
60
60
60
ENDCHAR

STARTCHAR g
ENCODING 103
SWIDTH 542 0
DWIDTH 7 0
BBX 7 9 0 -3
BITMAP
7E
CC
CC
78
60
7C
CC
CC
78
ENDCHAR

STARTCHAR h
ENCODING 104
SWIDTH 583 0
DWIDTH 7 0
BBX 6 9 1 0
BITMAP
C0
C0
C0
F8
CC
CC
CC
CC
CC
ENDCHAR

STARTCHAR i
ENCODING 105
SWIDTH 271 0
DWIDTH 3 0
BBX 2 9 1 0
BITMAP
C0
00
00
C0
C0
C0
C0
C0
C0
ENDCHAR

STARTCHAR j
ENCODING 106
SWIDTH 271 0
DWIDTH 3 0
BBX 3 12 0 -3
BITMAP
60
00
00
60
60
60
60
60
60
60
E0
C0
ENDCHAR

STARTCHAR k
ENCODING 107
SWIDTH 552 0
DWIDTH 7 0
BBX 6 9 1 0
BITMAP
C0
C0
C0
DC
D8
F8
F8
D8
DC
ENDCHAR

STARTCHAR l
ENCODING 108
SWIDTH 271 0
DWIDTH 3 0
BBX 2 9 1 0
BITMAP
C0
C0
C0
C0
C0
C0
C0
C0
C0
ENDCHAR

STARTCHAR m
ENCODING 109
SWIDTH 958 0
DWIDTH 11 0
BBX 10 6 1 0
BITMAP
FB80
CCC0
CCC0
CCC0
CCC0
CCC0
ENDCHAR

STARTCHAR n
ENCODING 110
SWIDTH 583 0
DWIDTH 7 0
BBX 6 6 1 0
BITMAP
F8
CC
CC
CC
CC
CC
ENDCHAR

STARTCHAR o
ENCODING 111
SWIDTH 594 0
DWIDTH 7 0
BBX 6 6 1 0
BITMAP
78
CC
CC
CC
CC
78
ENDCHAR

STARTCHAR p
ENCODING 112
SWIDTH 583 0
DWIDTH 7 0
BBX 6 9 1 -3
BITMAP
F8
CC
CC
CC
CC
F8
C0
C0
C0
ENDCHAR

STARTCHAR q
ENCODING 113
SWIDTH 583 0
DWIDTH 7 0
BBX 6 9 0 -3
BITMAP
7C
CC
CC
CC
CC
7C
0C
0C
0C
ENDCHAR

STARTCHAR r
ENCODING 114
SWIDTH 448 0
DWIDTH 5 0
BBX 5 6 1 0
BITMAP
D8
E0
C0
C0
C0
C0
ENDCHAR

STARTCHAR s
ENCODING 115
SWIDTH 427 0
DWIDTH 5 0
BBX 4 6 1 0
BITMAP
70
D0
E0
70
90
E0
ENDCHAR

STARTCHAR t
ENCODING 116
SWIDTH 406 0
DWIDTH 5 0
BBX 5 8 0 0
BITMAP
20
60
F8
60
60
60
60
38
ENDCHAR

STARTCHAR u
ENCODING 117
SWIDTH 583 0
DWIDTH 7 0
BBX 6 6 0 0
BITMAP
CC
CC
CC
CC
CC
7C
ENDCHAR

STARTCHAR v
ENCODING 118
SWIDTH 510 0
DWIDTH 6 0
BBX 6 6 0 0
BITMAP
CC
FC
78
78
30
30
ENDCHAR

STARTCHAR w
ENCODING 119
SWIDTH 781 0
DWIDTH 9 0
BBX 10 6 0 0
BITMAP
C9C0
ED80
7F80
7700
3700
3200
ENDCHAR

STARTCHAR x
ENCODING 120
SWIDTH 552 0
DWIDTH 7 0
BBX 7 6 0 0
BITMAP
EE
7C
38
38
7C
EE
ENDCHAR

STARTCHAR y
ENCODING 121
SWIDTH 510 0
DWIDTH 6 0
BBX 6 9 0 -3
BITMAP
CC
EC
78
78
30
30
70
60
E0
ENDCHAR

STARTCHAR z
ENCODING 122
SWIDTH 521 0
DWIDTH 6 0
BBX 6 6 0 0
BITMAP
FC
18
30
70
60
FC
ENDCHAR

STARTCHAR braceleft
ENCODING 123
SWIDTH 385 0
DWIDTH 5 0
BBX 4 12 0 -3
BITMAP
30
60
60
60
60
40
40
E0
60
60
60
70
ENDCHAR

STARTCHAR bar
ENCODING 124
SWIDTH 281 0
DWIDTH 3 0
BBX 2 12 1 -3
BITMAP
C0
C0
C0
C0
C0
C0
C0
C0
C0
C0
C0
C0
ENDCHAR

STARTCHAR braceright
ENCODING 125
SWIDTH 385 0
DWIDTH 5 0
BBX 4 12 0 -3
BITMAP
C0
60
60
60
60
20
20
70
60
60
60
E0
ENDCHAR

STARTCHAR asciitilde
ENCODING 126
SWIDTH 584 0
DWIDTH 7 0
BBX 6 2 1 4
BITMAP
F4
BC
ENDCHAR

STARTCHAR exclamdown
ENCODING 161
SWIDTH 271 0
DWIDTH 3 0
BBX 2 9 1 -3
BITMAP
C0
00
00
40
C0
C0
C0
C0
C0
ENDCHAR

STARTCHAR cent
ENCODING 162
SWIDTH 500 0
DWIDTH 6 0
BBX 5 12 1 -3
BITMAP
08
08
08
78
D0
D0
F0
E0
78
20
40
40
ENDCHAR

STARTCHAR sterling
ENCODING 163
SWIDTH 521 0
DWIDTH 6 0
BBX 5 9 1 0
BITMAP
38
60
60
60
E0
E0
40
C0
F8
ENDCHAR

STARTCHAR currency
ENCODING 164
SWIDTH 552 0
DWIDTH 7 0
BBX 6 5 0 1
BITMAP
FC
CC
CC
CC
FC
ENDCHAR

STARTCHAR yen
ENCODING 165
SWIDTH 552 0
DWIDTH 7 0
BBX 8 9 0 0
BITMAP
E7
66
3C
FF
18
18
FF
18
18
ENDCHAR

STARTCHAR brokenbar
ENCODING 166
SWIDTH 281 0
DWIDTH 3 0
BBX 2 12 1 -3
BITMAP
C0
C0
C0
C0
00
00
C0
C0
C0
C0
C0
C0
ENDCHAR

STARTCHAR section
ENCODING 167
SWIDTH 521 0
DWIDTH 6 0
BBX 6 12 0 -3
BITMAP
78
C0
E0
70
D8
DC
CC
68
70
18
18
F0
ENDCHAR

STARTCHAR dieresis
ENCODING 168
SWIDTH 333 0
DWIDTH 4 0
BBX 3 1 0 8
BITMAP
A0
ENDCHAR

STARTCHAR copyright
ENCODING 169
SWIDTH 740 0
DWIDTH 9 0
BBX 9 9 0 0
BITMAP
3E00
6300
D980
A480
A080
A480
D980
6300
3E00
ENDCHAR

STARTCHAR ordfeminine
ENCODING 170
SWIDTH 354 0
DWIDTH 4 0
BBX 5 4 0 5
BITMAP
F0
B0
F8
F8
ENDCHAR

STARTCHAR guillemotleft
ENCODING 171
SWIDTH 594 0
DWIDTH 7 0
BBX 8 6 0 0
BITMAP
CC
66
77
77
66
CC
ENDCHAR

STARTCHAR logicalnot
ENCODING 172
SWIDTH 584 0
DWIDTH 7 0
BBX 7 5 0 1
BITMAP
FE
FE
06
06
06
ENDCHAR

STARTCHAR hyphen
ENCODING 173
SWIDTH 333 0
DWIDTH 4 0
BBX 3 1 0 2
BITMAP
E0
ENDCHAR

STARTCHAR registered
ENCODING 174
SWIDTH 740 0
DWIDTH 9 0
BBX 10 9 0 0
BITMAP
1E00
6180
5E80
9240
9E40
9640
5680
6180
1E00
ENDCHAR

STARTCHAR macron
ENCODING 175
SWIDTH 333 0
DWIDTH 4 0
BBX 5 1 0 8
BITMAP
F8
ENDCHAR

STARTCHAR degree
ENCODING 176
SWIDTH 396 0
DWIDTH 5 0
BBX 4 4 0 5
BITMAP
60
90
90
60
ENDCHAR

STARTCHAR plusminus
ENCODING 177
SWIDTH 584 0
DWIDTH 7 0
BBX 6 9 1 0
BITMAP
30
30
FC
FC
30
30
30
FC
FC
ENDCHAR

STARTCHAR twosuperior
ENCODING 178
SWIDTH 333 0
DWIDTH 4 0
BBX 3 5 -4 4
BITMAP
E0
20
20
40
E0
ENDCHAR

STARTCHAR threesuperior
ENCODING 179
SWIDTH 333 0
DWIDTH 4 0
BBX 3 5 -3 4
BITMAP
E0
20
40
20
E0
ENDCHAR

STARTCHAR acute
ENCODING 180
SWIDTH 333 0
DWIDTH 4 0
BBX 3 2 1 7
BITMAP
60
80
ENDCHAR

STARTCHAR mu
ENCODING 181
SWIDTH 615 0
DWIDTH 7 0
BBX 6 9 1 -3
BITMAP
CC
CC
CC
CC
CC
FC
C0
C0
C0
ENDCHAR

STARTCHAR paragraph
ENCODING 182
SWIDTH 552 0
DWIDTH 7 0
BBX 7 12 0 -3
BITMAP
7E
EC
EC
EC
6C
6C
6C
6C
6C
6C
6C
6C
ENDCHAR

STARTCHAR periodcentered
ENCODING 183
SWIDTH 271 0
DWIDTH 3 0
BBX 2 2 1 3
BITMAP
C0
C0
ENDCHAR

STARTCHAR cedilla
ENCODING 184
SWIDTH 333 0
DWIDTH 4 0
BBX 2 3 1 -3
BITMAP
80
C0
C0
ENDCHAR

STARTCHAR onesuperior
ENCODING 185
SWIDTH 333 0
DWIDTH 4 0
BBX 1 5 -5 4
BITMAP
80
80
80
80
80
ENDCHAR

STARTCHAR ordmasculine
ENCODING 186
SWIDTH 396 0
DWIDTH 5 0
BBX 5 4 0 5
BITMAP
70
D8
D8
70
ENDCHAR

STARTCHAR guillemotright
ENCODING 187
SWIDTH 594 0
DWIDTH 7 0
BBX 8 6 0 0
BITMAP
33
66
EE
EE
66
33
ENDCHAR

STARTCHAR onequarter
ENCODING 188
SWIDTH 896 0
DWIDTH 11 0
BBX 9 9 3 0
BITMAP
8300
8200
8600
8C00
8880
1980
3380
2380
6080
ENDCHAR

STARTCHAR onehalf
ENCODING 189
SWIDTH 896 0
DWIDTH 11 0
BBX 9 9 3 0
BITMAP
8300
8200
8600
8C00
8B80
1880
3080
2100
6380
ENDCHAR

STARTCHAR threequarters
ENCODING 190
SWIDTH 896 0
DWIDTH 11 0
BBX 10 9 4 0
BITMAP
E180
2100
4300
2600
E440
0CC0
19C0
11C0
3040
ENDCHAR

STARTCHAR questiondown
ENCODING 191
SWIDTH 375 0
DWIDTH 5 0
BBX 3 9 1 -3
BITMAP
60
00
00
20
60
60
C0
C0
E0
ENDCHAR

STARTCHAR Agrave
ENCODING 192
SWIDTH 781 0
DWIDTH 9 0
BBX 9 12 0 0
BITMAP
1800
0400
0000
1C00
1C00
3600
3600
3600
6300
7F00
6380
C180
ENDCHAR

STARTCHAR Aacute
ENCODING 193
SWIDTH 781 0
DWIDTH 9 0
BBX 9 12 0 0
BITMAP
0600
0800
0000
1C00
1C00
3600
3600
3600
6300
7F00
6380
C180
ENDCHAR

STARTCHAR Acircumflex
ENCODING 194
SWIDTH 781 0
DWIDTH 9 0
BBX 9 12 0 0
BITMAP
0C00
1E00
0000
1C00
1C00
3600
3600
3600
6300
7F00
6380
C180
ENDCHAR

STARTCHAR Atilde
ENCODING 195
SWIDTH 781 0
DWIDTH 9 0
BBX 9 11 0 0
BITMAP
3E00
0000
1C00
1C00
3600
3600
3600
6300
7F00
6380
C180
ENDCHAR

STARTCHAR Adieresis
ENCODING 196
SWIDTH 781 0
DWIDTH 9 0
BBX 9 11 0 0
BITMAP
1400
0000
1C00
1C00
3600
3600
3600
6300
7F00
6380
C180
ENDCHAR

STARTCHAR Aring
ENCODING 197
SWIDTH 781 0
DWIDTH 9 0
BBX 9 13 0 0
BITMAP
1C00
1400
1C00
0000
1C00
1C00
3600
3600
3600
6300
7F00
6380
C180
ENDCHAR

STARTCHAR AE
ENCODING 198
SWIDTH 1073 0
DWIDTH 13 0
BBX 12 9 0 0
BITMAP
07F0
0F00
0B00
1B00
3FF0
3300
7300
6300
E3F0
ENDCHAR

STARTCHAR Ccedilla
ENCODING 199
SWIDTH 771 0
DWIDTH 9 0
BBX 8 12 1 -3
BITMAP
1F
61
C0
C0
C0
C0
C0
61
3F
10
18
18
ENDCHAR

STARTCHAR Egrave
ENCODING 200
SWIDTH 635 0
DWIDTH 8 0
BBX 6 12 1 0
BITMAP
60
10
00
FC
C0
C0
C0
FC
C0
C0
C0
FC
ENDCHAR

STARTCHAR Eacute
ENCODING 201
SWIDTH 635 0
DWIDTH 8 0
BBX 6 12 1 0
BITMAP
18
20
00
FC
C0
C0
C0
FC
C0
C0
C0
FC
ENDCHAR

STARTCHAR Ecircumflex
ENCODING 202
SWIDTH 635 0
DWIDTH 8 0
BBX 6 12 1 0
BITMAP
30
78
00
FC
C0
C0
C0
FC
C0
C0
C0
FC
ENDCHAR

STARTCHAR Edieresis
ENCODING 203
SWIDTH 635 0
DWIDTH 8 0
BBX 6 11 1 0
BITMAP
50
00
FC
C0
C0
C0
FC
C0
C0
C0
FC
ENDCHAR

STARTCHAR Igrave
ENCODING 204
SWIDTH 333 0
DWIDTH 4 0
BBX 3 12 2 0
BITMAP
C0
20
00
60
60
60
60
60
60
60
60
60
ENDCHAR

STARTCHAR Iacute
ENCODING 205
SWIDTH 333 0
DWIDTH 4 0
BBX 3 12 1 0
BITMAP
60
80
00
C0
C0
C0
C0
C0
C0
C0
C0
C0
ENDCHAR

STARTCHAR Icircumflex
ENCODING 206
SWIDTH 333 0
DWIDTH 4 0
BBX 4 12 2 0
BITMAP
60
F0
00
60
60
60
60
60
60
60
60
60
ENDCHAR

STARTCHAR Idieresis
ENCODING 207
SWIDTH 333 0
DWIDTH 4 0
BBX 3 11 2 0
BITMAP
A0
00
60
60
60
60
60
60
60
60
60
ENDCHAR

STARTCHAR Eth
ENCODING 208
SWIDTH 802 0
DWIDTH 10 0
BBX 9 9 0 0
BITMAP
7E00
6300
6180
6180
F980
6180
6180
6300
7E00
ENDCHAR

STARTCHAR Ntilde
ENCODING 209
SWIDTH 844 0
DWIDTH 10 0
BBX 8 11 1 0
BITMAP
3E
00
C3
E3
F3
FB
DF
CF
CF
C7
C3
ENDCHAR

STARTCHAR Ograve
ENCODING 210
SWIDTH 875 0
DWIDTH 11 0
BBX 9 12 1 0
BITMAP
1800
0400
0000
3E00
6300
C180
C180
C180
C180
C180
6300
3E00
ENDCHAR

STARTCHAR Oacute
ENCODING 211
SWIDTH 875 0
DWIDTH 11 0
BBX 9 12 1 0
BITMAP
0C00
1000
0000
3E00
6300
C180
C180
C180
C180
C180
6300
3E00
ENDCHAR

STARTCHAR Ocircumflex
ENCODING 212
SWIDTH 875 0
DWIDTH 11 0
BBX 9 12 1 0
BITMAP
1800
3C00
0000
3E00
6300
C180
C180
C180
C180
C180
6300
3E00
ENDCHAR

STARTCHAR Otilde
ENCODING 213
SWIDTH 875 0
DWIDTH 11 0
BBX 9 11 1 0
BITMAP
3E00
0000
3E00
6300
C180
C180
C180
C180
C180
6300
3E00
ENDCHAR

STARTCHAR Odieresis
ENCODING 214
SWIDTH 875 0
DWIDTH 11 0
BBX 9 11 1 0
BITMAP
1400
0000
3E00
6300
C180
C180
C180
C180
C180
6300
3E00
ENDCHAR

STARTCHAR multiply
ENCODING 215
SWIDTH 584 0
DWIDTH 7 0
BBX 6 6 1 2
BITMAP
48
DC
70
70
D8
4C
ENDCHAR

STARTCHAR Oslash
ENCODING 216
SWIDTH 875 0
DWIDTH 11 0
BBX 10 9 1 0
BITMAP
3E80
63C0
C380
C780
CD80
F980
F180
E300
FE00
ENDCHAR

STARTCHAR Ugrave
ENCODING 217
SWIDTH 823 0
DWIDTH 10 0
BBX 8 12 1 0
BITMAP
30
08
00
C3
C3
C3
C3
C3
C3
C3
66
3C
ENDCHAR

STARTCHAR Uacute
ENCODING 218
SWIDTH 823 0
DWIDTH 10 0
BBX 8 12 1 0
BITMAP
0C
10
00
C3
C3
C3
C3
C3
C3
C3
66
3C
ENDCHAR

STARTCHAR Ucircumflex
ENCODING 219
SWIDTH 823 0
DWIDTH 10 0
BBX 8 12 1 0
BITMAP
18
3C
00
C3
C3
C3
C3
C3
C3
C3
66
3C
ENDCHAR

STARTCHAR Udieresis
ENCODING 220
SWIDTH 823 0
DWIDTH 10 0
BBX 8 11 1 0
BITMAP
28
00
C3
C3
C3
C3
C3
C3
C3
66
3C
ENDCHAR

STARTCHAR Yacute
ENCODING 221
SWIDTH 708 0
DWIDTH 8 0
BBX 8 12 0 0
BITMAP
0C
10
00
E7
66
3C
3C
18
18
18
18
18
ENDCHAR

STARTCHAR Thorn
ENCODING 222
SWIDTH 656 0
DWIDTH 8 0
BBX 6 9 1 0
BITMAP
C0
C0
F8
CC
CC
CC
F8
C0
C0
ENDCHAR

STARTCHAR germandbls
ENCODING 223
SWIDTH 604 0
DWIDTH 7 0
BBX 6 9 1 0
BITMAP
78
CC
CC
DC
CC
CC
CC
CC
D8
ENDCHAR

STARTCHAR agrave
ENCODING 224
SWIDTH 531 0
DWIDTH 6 0
BBX 6 9 0 0
BITMAP
60
10
00
F0
98
38
D8
D8
EC
ENDCHAR

STARTCHAR aacute
ENCODING 225
SWIDTH 531 0
DWIDTH 6 0
BBX 6 9 0 0
BITMAP
18
20
00
F0
98
38
D8
D8
EC
ENDCHAR

STARTCHAR acircumflex
ENCODING 226
SWIDTH 531 0
DWIDTH 6 0
BBX 6 9 0 0
BITMAP
30
78
00
F0
98
38
D8
D8
EC
ENDCHAR

STARTCHAR atilde
ENCODING 227
SWIDTH 531 0
DWIDTH 6 0
BBX 6 8 0 0
BITMAP
F8
00
F0
98
38
D8
D8
EC
ENDCHAR

STARTCHAR adieresis
ENCODING 228
SWIDTH 531 0
DWIDTH 6 0
BBX 6 8 0 0
BITMAP
50
00
F0
98
38
D8
D8
EC
ENDCHAR

STARTCHAR aring
ENCODING 229
SWIDTH 531 0
DWIDTH 6 0
BBX 6 10 0 0
BITMAP
70
50
70
00
F0
98
38
D8
D8
EC
ENDCHAR

STARTCHAR ae
ENCODING 230
SWIDTH 781 0
DWIDTH 9 0
BBX 9 6 0 0
BITMAP
F700
9980
3F80
D800
D880
E700
ENDCHAR

STARTCHAR ccedilla
ENCODING 231
SWIDTH 500 0
DWIDTH 6 0
BBX 5 9 1 -3
BITMAP
78
C8
C0
C0
C8
78
20
30
30
ENDCHAR

STARTCHAR egrave
ENCODING 232
SWIDTH 552 0
DWIDTH 7 0
BBX 6 9 0 0
BITMAP
60
10
00
78
CC
FC
C0
E4
7C
ENDCHAR

STARTCHAR eacute
ENCODING 233
SWIDTH 552 0
DWIDTH 7 0
BBX 6 9 0 0
BITMAP
18
20
00
78
CC
FC
C0
E4
7C
ENDCHAR

STARTCHAR ecircumflex
ENCODING 234
SWIDTH 552 0
DWIDTH 7 0
BBX 6 9 0 0
BITMAP
30
78
00
78
CC
FC
C0
E4
7C
ENDCHAR

STARTCHAR edieresis
ENCODING 235
SWIDTH 552 0
DWIDTH 7 0
BBX 6 8 0 0
BITMAP
50
00
78
CC
FC
C0
E4
7C
ENDCHAR

STARTCHAR igrave
ENCODING 236
SWIDTH 271 0
DWIDTH 3 0
BBX 3 9 2 0
BITMAP
C0
20
00
60
60
60
60
60
60
ENDCHAR

STARTCHAR iacute
ENCODING 237
SWIDTH 271 0
DWIDTH 3 0
BBX 3 9 1 0
BITMAP
60
80
00
C0
C0
C0
C0
C0
C0
ENDCHAR

STARTCHAR icircumflex
ENCODING 238
SWIDTH 271 0
DWIDTH 3 0
BBX 4 9 2 0
BITMAP
60
F0
00
60
60
60
60
60
60
ENDCHAR

STARTCHAR idieresis
ENCODING 239
SWIDTH 271 0
DWIDTH 3 0
BBX 3 8 2 0
BITMAP
A0
00
60
60
60
60
60
60
ENDCHAR

STARTCHAR eth
ENCODING 240
SWIDTH 615 0
DWIDTH 7 0
BBX 6 9 1 0
BITMAP
38
30
48
7C
CC
CC
CC
CC
78
ENDCHAR

STARTCHAR ntilde
ENCODING 241
SWIDTH 583 0
DWIDTH 7 0
BBX 6 8 1 0
BITMAP
7C
00
F8
CC
CC
CC
CC
CC
ENDCHAR

STARTCHAR ograve
ENCODING 242
SWIDTH 594 0
DWIDTH 7 0
BBX 6 9 1 0
BITMAP
60
10
00
78
CC
CC
CC
CC
78
ENDCHAR

STARTCHAR oacute
ENCODING 243
SWIDTH 594 0
DWIDTH 7 0
BBX 6 9 1 0
BITMAP
18
20
00
78
CC
CC
CC
CC
78
ENDCHAR

STARTCHAR ocircumflex
ENCODING 244
SWIDTH 594 0
DWIDTH 7 0
BBX 6 9 1 0
BITMAP
30
78
00
78
CC
CC
CC
CC
78
ENDCHAR

STARTCHAR otilde
ENCODING 245
SWIDTH 594 0
DWIDTH 7 0
BBX 6 8 1 0
BITMAP
7C
00
78
CC
CC
CC
CC
78
ENDCHAR

STARTCHAR odieresis
ENCODING 246
SWIDTH 594 0
DWIDTH 7 0
BBX 6 8 1 0
BITMAP
50
00
78
CC
CC
CC
CC
78
ENDCHAR

STARTCHAR divide
ENCODING 247
SWIDTH 584 0
DWIDTH 7 0
BBX 6 8 1 1
BITMAP
30
30
00
FC
FC
00
30
30
ENDCHAR

STARTCHAR oslash
ENCODING 248
SWIDTH 594 0
DWIDTH 7 0
BBX 6 7 1 0
BITMAP
04
7C
DC
FC
EC
CC
F8
ENDCHAR

STARTCHAR ugrave
ENCODING 249
SWIDTH 583 0
DWIDTH 7 0
BBX 6 9 0 0
BITMAP
60
10
00
CC
CC
CC
CC
CC
7C
ENDCHAR

STARTCHAR uacute
ENCODING 250
SWIDTH 583 0
DWIDTH 7 0
BBX 6 9 0 0
BITMAP
18
20
00
CC
CC
CC
CC
CC
7C
ENDCHAR

STARTCHAR ucircumflex
ENCODING 251
SWIDTH 583 0
DWIDTH 7 0
BBX 6 9 0 0
BITMAP
30
78
00
CC
CC
CC
CC
CC
7C
ENDCHAR

STARTCHAR udieresis
ENCODING 252
SWIDTH 583 0
DWIDTH 7 0
BBX 6 8 0 0
BITMAP
28
00
CC
CC
CC
CC
CC
7C
ENDCHAR

STARTCHAR yacute
ENCODING 253
SWIDTH 510 0
DWIDTH 6 0
BBX 6 12 0 -3
BITMAP
18
20
00
CC
EC
78
78
30
30
70
60
E0
ENDCHAR

STARTCHAR thorn
ENCODING 254
SWIDTH 583 0
DWIDTH 7 0
BBX 6 12 1 -3
BITMAP
C0
C0
C0
F8
CC
CC
CC
CC
F8
C0
C0
C0
ENDCHAR

STARTCHAR ydieresis
ENCODING 255
SWIDTH 510 0
DWIDTH 6 0
BBX 6 11 0 -3
BITMAP
28
00
CC
EC
78
78
30
30
70
60
E0
ENDCHAR
ENDFONT
